<svg xmlns="http://www.w3.org/2000/svg" viewBox="0 0 1200 675" role="img" aria-label="WhatsApp cover image">
  <defs>
    <linearGradient id="bg" x1="0" y1="0" x2="1" y2="1">
      <stop offset="0%" stop-color="#128C7E"/>
      <stop offset="100%" stop-color="#25D366"/>
    </linearGradient>
  </defs>
  <rect width="1200" height="675" fill="url(#bg)"/>
  <circle cx="600" cy="337.5" r="185" fill="none" stroke="#ffffff" stroke-width="28"/>
  <path d="M500 455l28-102a150 150 0 1 1 102 95z" fill="none" stroke="#ffffff" stroke-width="24" stroke-linecap="round" stroke-linejoin="round"/>
  <path d="M570 300c14 28 34 52 62 68 8 4 14 2 19-4l14-17c5-6 13-8 20-5l30 13c9 4 13 14 9 23-7 18-21 33-42 36-44 7-92-10-130-48s-55-86-48-130c3-21 18-35 36-42 9-4 19 0 23 9l13 30c3 7 1 15-5 20l-17 14c-6 5-8 11-4 19z" fill="#ffffff"/>
  <text x="64" y="615" fill="#ffffff" font-size="92" font-family="Segoe UI, Arial, sans-serif" font-weight="700" letter-spacing="2">WHATSAPP</text>
</svg>
