<svg xmlns="http://www.w3.org/2000/svg" viewBox="0 0 64 64" role="img" aria-label="WhatsApp icon">
  <defs>
    <linearGradient id="wa" x1="0" y1="0" x2="1" y2="1">
      <stop offset="0%" stop-color="#128C7E"/>
      <stop offset="100%" stop-color="#25D366"/>
    </linearGradient>
  </defs>
  <circle cx="32" cy="32" r="30" fill="url(#wa)"/>
  <path d="M19 49l3-10a16 16 0 1 1 6 5z" fill="none" stroke="#fff" stroke-width="3.2" stroke-linecap="round" stroke-linejoin="round"/>
  <path d="M27 26c1 2 2.5 3.7 4.5 5 1 .6 1.9.5 2.6-.3l1.5-1.8c.4-.5 1.2-.7 1.8-.4l2.5 1.1c.8.4 1.1 1.3.8 2.1-1 2.2-2.8 3.9-5.2 4.2-3.5.4-7.2-.9-10-3.7s-4.1-6.5-3.7-10c.3-2.4 2-4.2 4.2-5.2.8-.3 1.7 0 2.1.8l1.1 2.5c.3.6.1 1.4-.4 1.8L27.3 24c-.8.7-.9 1.6-.3 2.6z" fill="#fff"/>
</svg>
